<?xml version="1.0" encoding="UTF-8" standalone="no"?>
<!-- Created with Inkscape (http://www.inkscape.org/) -->

<svg
   xmlns:dc="http://purl.org/dc/elements/1.1/"
   xmlns:cc="http://creativecommons.org/ns#"
   xmlns:rdf="http://www.w3.org/1999/02/22-rdf-syntax-ns#"
   xmlns:svg="http://www.w3.org/2000/svg"
   xmlns="http://www.w3.org/2000/svg"
   xmlns:sodipodi="http://sodipodi.sourceforge.net/DTD/sodipodi-0.dtd"
   xmlns:inkscape="http://www.inkscape.org/namespaces/inkscape"
   width="50"
   height="50"
   viewBox="0 0 50 50"
   version="1.1"
   id="svg8"
   inkscape:version="0.92.3 (2405546, 2018-03-11)"
   sodipodi:docname="01n.svg">
  <defs
     id="defs2" />
  <sodipodi:namedview
     id="base"
     pagecolor="#ffffff"
     bordercolor="#666666"
     borderopacity="1.0"
     inkscape:pageopacity="0.0"
     inkscape:pageshadow="2"
     inkscape:zoom="11.2"
     inkscape:cx="7.5192967"
     inkscape:cy="27.821476"
     inkscape:document-units="px"
     inkscape:current-layer="layer1"
     showgrid="false"
     units="px"
     inkscape:window-width="1920"
     inkscape:window-height="986"
     inkscape:window-x="-11"
     inkscape:window-y="-11"
     inkscape:window-maximized="1"
     inkscape:lockguides="false" />
  <metadata
     id="metadata5">
    <rdf:RDF>
      <cc:Work
         rdf:about="">
        <dc:format>image/svg+xml</dc:format>
        <dc:type
           rdf:resource="http://purl.org/dc/dcmitype/StillImage" />
        <dc:title />
      </cc:Work>
    </rdf:RDF>
  </metadata>
  <g
     inkscape:label="Calque 1"
     inkscape:groupmode="layer"
     id="layer1"
     transform="translate(0,-283.77081)">
    <path
       style="fill:#b3b3ce;fill-opacity:1;fill-rule:nonzero;stroke:none;stroke-width:0.1;stroke-linecap:round;stroke-linejoin:round;stroke-miterlimit:4;stroke-dasharray:none;stroke-opacity:1;paint-order:fill markers stroke"
       d="m 23.109698,296.36459 a 13.024532,12.424735 0 0 0 -9.244968,11.87827 13.024532,12.424735 0 0 0 13.024746,12.42473 13.024532,12.424735 0 0 0 8.266196,-2.83583 13.333822,13.147867 0 0 1 -0.897584,0.10783 13.333822,13.147867 0 0 1 -0.942689,0.033 13.333822,13.147867 0 0 1 -1.332094,-0.0662 13.333822,13.147867 0 0 1 -1.317058,-0.19558 13.333822,13.147867 0 0 1 -1.291499,-0.32499 13.333822,13.147867 0 0 1 -1.252409,-0.45155 13.333822,13.147867 0 0 1 -1.199786,-0.57091 13.333822,13.147867 0 0 1 -1.136639,-0.68737 13.333822,13.147867 0 0 1 -1.059962,-0.79524 13.333822,13.147867 0 0 1 -0.975766,-0.89592 13.333822,13.147867 0 0 1 -0.879542,-0.98649 13.333822,13.147867 0 0 1 -0.775802,-1.06992 13.333822,13.147867 0 0 1 -0.663039,-1.14036 13.333822,13.147867 0 0 1 -0.544264,-1.19933 13.333822,13.147867 0 0 1 -0.420978,-1.2468 13.333822,13.147867 0 0 1 -0.291678,-1.28272 13.333822,13.147867 0 0 1 -0.160874,-1.30432 13.333822,13.147867 0 0 1 -0.03307,-0.93042 13.333822,13.147867 0 0 1 0.06765,-1.3115 13.333822,13.147867 0 0 1 0.19846,-1.3 13.333822,13.147867 0 0 1 0.329265,-1.27411 13.333822,13.147867 0 0 1 0.457062,-1.23384 13.333822,13.147867 0 0 1 0.580347,-1.18352 13.333822,13.147867 0 0 1 0.696117,-1.12024 13.333822,13.147867 0 0 1 0.799857,-1.03683 z"
       id="path833"
       inkscape:connector-curvature="0" />
    <path
       sodipodi:type="star"
       style="fill:#b3b3ce;fill-opacity:1;fill-rule:nonzero;stroke:none;stroke-width:0.10000001;stroke-linecap:round;stroke-linejoin:round;stroke-miterlimit:4;stroke-dasharray:none;stroke-opacity:1;paint-order:fill markers stroke"
       id="path844"
       sodipodi:sides="5"
       sodipodi:cx="34.895999"
       sodipodi:cy="301.5673"
       sodipodi:r1="1.8262292"
       sodipodi:r2="0.91311461"
       sodipodi:arg1="1.2252407"
       sodipodi:arg2="1.8535592"
       inkscape:flatsided="false"
       inkscape:rounded="0"
       inkscape:randomized="0"
       d="m 35.514579,303.28557 -0.873347,-0.84143 -1.188258,0.24243 0.530361,-1.09061 -0.597754,-1.05519 1.201129,0.16738 0.818826,-0.89457 0.211977,1.19407 1.103816,0.50231 -1.07012,0.57059 z"
       inkscape:transform-center-x="0.30928612"
       inkscape:transform-center-y="0.16175004" />
    <path
       sodipodi:type="star"
       style="fill:#b3b3ce;fill-opacity:1;fill-rule:nonzero;stroke:none;stroke-width:0.10000001;stroke-linecap:round;stroke-linejoin:round;stroke-miterlimit:4;stroke-dasharray:none;stroke-opacity:1;paint-order:fill markers stroke"
       id="path844-0"
       sodipodi:sides="5"
       sodipodi:cx="30.339757"
       sodipodi:cy="303.23456"
       sodipodi:r1="1.8262292"
       sodipodi:r2="0.91311461"
       sodipodi:arg1="1.2252407"
       sodipodi:arg2="1.8535592"
       inkscape:flatsided="false"
       inkscape:rounded="0"
       inkscape:randomized="0"
       d="m 30.958337,304.95283 -0.873347,-0.84142 -1.188258,0.24243 0.530361,-1.09062 -0.597754,-1.05518 1.201129,0.16738 0.818826,-0.89457 0.211977,1.19407 1.103816,0.50231 -1.07012,0.57059 z"
       inkscape:transform-center-x="0.30928838"
       inkscape:transform-center-y="0.16171537" />
  </g>
</svg>
