<?xml version="1.0" encoding="UTF-8" standalone="no"?>
<!-- Created with Inkscape (http://www.inkscape.org/) -->

<svg
   xmlns:dc="http://purl.org/dc/elements/1.1/"
   xmlns:cc="http://creativecommons.org/ns#"
   xmlns:rdf="http://www.w3.org/1999/02/22-rdf-syntax-ns#"
   xmlns:svg="http://www.w3.org/2000/svg"
   xmlns="http://www.w3.org/2000/svg"
   xmlns:sodipodi="http://sodipodi.sourceforge.net/DTD/sodipodi-0.dtd"
   xmlns:inkscape="http://www.inkscape.org/namespaces/inkscape"
   width="50"
   height="50"
   viewBox="0 0 50 50"
   version="1.1"
   id="svg8"
   inkscape:version="0.92.3 (2405546, 2018-03-11)"
   sodipodi:docname="02n.svg">
  <defs
     id="defs2" />
  <sodipodi:namedview
     id="base"
     pagecolor="#ffffff"
     bordercolor="#666666"
     borderopacity="1.0"
     inkscape:pageopacity="0.0"
     inkscape:pageshadow="2"
     inkscape:zoom="5.6"
     inkscape:cx="3.6926554"
     inkscape:cy="25.81443"
     inkscape:document-units="px"
     inkscape:current-layer="layer1"
     showgrid="false"
     units="px"
     inkscape:window-width="1920"
     inkscape:window-height="986"
     inkscape:window-x="-11"
     inkscape:window-y="-11"
     inkscape:window-maximized="1"
     inkscape:snap-smooth-nodes="true"
     inkscape:object-paths="true"
     inkscape:snap-intersection-paths="true" />
  <metadata
     id="metadata5">
    <rdf:RDF>
      <cc:Work
         rdf:about="">
        <dc:format>image/svg+xml</dc:format>
        <dc:type
           rdf:resource="http://purl.org/dc/dcmitype/StillImage" />
        <dc:title />
      </cc:Work>
    </rdf:RDF>
  </metadata>
  <g
     inkscape:label="Calque 1"
     inkscape:groupmode="layer"
     id="layer1"
     transform="translate(0,-283.77081)">
    <g
       id="layer1-3"
       inkscape:label="Calque 1"
       transform="matrix(0.42114288,0,0,0.42114288,23.690639,172.41884)"
       style="stroke-width:2.37449121">
      <path
         inkscape:connector-curvature="0"
         id="path833"
         d="m 21.474609,291.65502 a 16.919643,16.875 0 0 0 -12.0097651,16.13281 16.919643,16.875 0 0 0 16.9199221,16.875 16.919643,16.875 0 0 0 10.738281,-3.85156 17.32143,17.857141 0 0 1 -1.166016,0.14648 17.32143,17.857141 0 0 1 -1.224609,0.0449 17.32143,17.857141 0 0 1 -1.730469,-0.0898 17.32143,17.857141 0 0 1 -1.710937,-0.26562 17.32143,17.857141 0 0 1 -1.677735,-0.44141 17.32143,17.857141 0 0 1 -1.626953,-0.61328 17.32143,17.857141 0 0 1 -1.558594,-0.77539 17.32143,17.857141 0 0 1 -1.476562,-0.93359 17.32143,17.857141 0 0 1 -1.376953,-1.08008 17.32143,17.857141 0 0 1 -1.267578,-1.2168 17.32143,17.857141 0 0 1 -1.142579,-1.33984 17.32143,17.857141 0 0 1 -1.007812,-1.45313 17.32143,17.857141 0 0 1 -0.861328,-1.54883 17.32143,17.857141 0 0 1 -0.707031,-1.6289 17.32143,17.857141 0 0 1 -0.546875,-1.69336 17.32143,17.857141 0 0 1 -0.378907,-1.74219 17.32143,17.857141 0 0 1 -0.208984,-1.77148 17.32143,17.857141 0 0 1 -0.04297,-1.26368 17.32143,17.857141 0 0 1 0.08789,-1.78125 17.32143,17.857141 0 0 1 0.257812,-1.76562 17.32143,17.857141 0 0 1 0.427735,-1.73047 17.32143,17.857141 0 0 1 0.59375,-1.67578 17.32143,17.857141 0 0 1 0.753906,-1.60742 17.32143,17.857141 0 0 1 0.904297,-1.52149 17.32143,17.857141 0 0 1 1.039062,-1.4082 z"
         style="fill:#b3b3ce;fill-opacity:1;fill-rule:nonzero;stroke:none;stroke-width:0.23744911;stroke-linecap:round;stroke-linejoin:round;stroke-miterlimit:4;stroke-dasharray:none;stroke-opacity:1;paint-order:fill markers stroke" />
      <path
         inkscape:transform-center-y="0.21007908"
         inkscape:transform-center-x="0.40178571"
         d="m 37.589285,300.64578 -1.134531,-1.09306 -1.543618,0.31493 0.688972,-1.41678 -0.776519,-1.37075 1.560338,0.21744 1.063704,-1.16209 0.275371,1.55116 1.433923,0.65253 -1.39015,0.74123 z"
         inkscape:randomized="0"
         inkscape:rounded="0"
         inkscape:flatsided="false"
         sodipodi:arg2="1.8535592"
         sodipodi:arg1="1.2252407"
         sodipodi:r2="1.1861902"
         sodipodi:r1="2.3723805"
         sodipodi:cy="298.41364"
         sodipodi:cx="36.785713"
         sodipodi:sides="5"
         id="path844"
         style="fill:#b3b3ce;fill-opacity:1;fill-rule:nonzero;stroke:none;stroke-width:0.23744911;stroke-linecap:round;stroke-linejoin:round;stroke-miterlimit:4;stroke-dasharray:none;stroke-opacity:1;paint-order:fill markers stroke"
         sodipodi:type="star" />
      <path
         inkscape:transform-center-y="0.21007908"
         inkscape:transform-center-x="0.40178571"
         d="m 31.670458,302.8117 -1.134531,-1.09306 -1.543618,0.31493 0.688971,-1.41677 -0.776518,-1.37075 1.560338,0.21744 1.063704,-1.1621 0.275371,1.55116 1.433922,0.65254 -1.390149,0.74123 z"
         inkscape:randomized="0"
         inkscape:rounded="0"
         inkscape:flatsided="false"
         sodipodi:arg2="1.8535592"
         sodipodi:arg1="1.2252407"
         sodipodi:r2="1.1861902"
         sodipodi:r1="2.3723805"
         sodipodi:cy="300.57956"
         sodipodi:cx="30.866886"
         sodipodi:sides="5"
         id="path844-0"
         style="fill:#b3b3ce;fill-opacity:1;fill-rule:nonzero;stroke:none;stroke-width:0.23744911;stroke-linecap:round;stroke-linejoin:round;stroke-miterlimit:4;stroke-dasharray:none;stroke-opacity:1;paint-order:fill markers stroke"
         sodipodi:type="star" />
    </g>
    <path
       style="fill:#ffcc00;stroke:#ffcc00;stroke-width:2;stroke-linecap:round;stroke-linejoin:round;stroke-miterlimit:4;stroke-dasharray:none;stroke-opacity:1"
       d="m 33.281833,311.84529 v 1.73607"
       id="path4487-3"
       inkscape:connector-curvature="0"
       sodipodi:nodetypes="cc" />
    <path
       style="fill:#ffcc00;stroke:#ffcc00;stroke-width:2;stroke-linecap:round;stroke-linejoin:round;stroke-miterlimit:4;stroke-dasharray:none;stroke-opacity:1"
       d="m 26.174878,307.71955 -1.495241,0.86804"
       id="path4487-3-8"
       inkscape:connector-curvature="0"
       sodipodi:nodetypes="cc" />
    <path
       style="fill:#ffffff;stroke:#00aaff;stroke-width:1.99999988;stroke-linecap:butt;stroke-linejoin:miter;stroke-miterlimit:4;stroke-dasharray:none;stroke-opacity:1"
       d="m 16.580058,308.64583 c 4.279375,-9.25436 15.53767,-6.02456 16.701775,3.19946"
       id="path4514"
       inkscape:connector-curvature="0"
       sodipodi:nodetypes="cc" />
    <path
       style="fill:#ffffff;stroke:#00aaff;stroke-width:1.99999988;stroke-linecap:round;stroke-linejoin:miter;stroke-miterlimit:4;stroke-dasharray:none;stroke-opacity:1"
       d="m 18.727817,309.96634 c -9.9515361,-7.59096 -15.5354343,8.37777 -4.63794,10.18893 l 18.721439,-0.0564 c 7.412625,0.0248 5.2085,-12.05413 -3.071996,-7.03652"
       id="path4512"
       inkscape:connector-curvature="0"
       sodipodi:nodetypes="cccc" />
  </g>
</svg>
